<svg width="720" height="150" viewBox="0 0 720 150" fill="none" xmlns="http://www.w3.org/2000/svg">
<g clip-path="url(#clip0_10_46)">
<path d="M717.684 105.186C719.154 105.108 719.388 104.886 719.466 103.458C719.502 102.804 719.49 102.15 719.49 101.496C719.49 95.6102 719.49 89.7181 719.49 83.8321C719.49 77.5501 719.496 71.2681 719.484 64.9861C719.478 62.3281 719.46 62.3161 716.91 62.3161C691.59 62.3161 666.27 62.3161 640.95 62.3161C640.314 62.3161 639.678 62.3761 638.94 62.4121C638.94 67.8961 638.94 73.2181 638.94 78.7441C639.882 78.7801 640.71 78.8461 641.544 78.8461C659.142 78.8521 676.746 78.8461 694.344 78.8581C695.166 78.8581 695.994 78.9481 696.906 78.9961C696.906 82.0321 696.906 84.8761 696.906 87.6841C694.932 88.1821 608.31 88.1221 606.864 87.6481C606.45 85.2361 606.576 54.0481 607.08 52.3981C607.83 52.3981 608.664 52.3981 609.498 52.3981C632.79 52.3981 656.082 52.3981 679.374 52.3981C691.938 52.3981 704.496 52.3981 717.06 52.3921C719.316 52.3921 719.472 52.2601 719.478 50.1121C719.496 45.9241 719.478 41.7361 719.454 37.5481C719.454 37.1161 719.328 36.6781 719.268 36.3001C717.678 35.8681 587.28 35.7361 584.406 36.1861C584.406 37.1641 584.406 38.0641 584.406 38.9641C584.406 60.0301 584.406 81.1021 584.406 102.168C584.406 105.246 584.1 105.192 587.358 105.192C630.408 105.192 673.458 105.192 716.514 105.192C716.898 105.192 717.294 105.21 717.684 105.186Z" fill="url(#paint0_linear_10_46)"/>
<path d="M384.828 103.668C379.26 93.3062 373.686 82.9501 368.118 72.5881C361.902 61.0201 355.656 49.4641 349.518 37.8601C348.714 36.3421 347.802 35.9101 346.17 35.9101C317.574 35.9581 288.984 35.9581 260.388 35.9101C258.756 35.9101 257.82 36.3601 256.974 37.8181C251.496 47.2561 245.91 56.6341 240.366 66.0361C233.028 78.4801 225.702 90.9302 218.382 103.38C218.106 103.854 217.914 104.37 217.62 105C218.184 105.09 218.496 105.186 218.808 105.186C226.332 105.198 233.856 105.186 241.38 105.21C242.346 105.21 242.904 104.832 243.39 103.992C245.688 100.032 248.124 96.1562 250.368 92.1662C251.124 90.8222 251.994 90.3961 253.482 90.4081C261.462 90.4741 269.448 90.4381 277.428 90.4381C301.968 90.4381 326.502 90.4562 351.042 90.3962C352.824 90.3902 353.742 90.9781 354.504 92.5201C356.328 96.2102 358.38 99.7802 360.234 103.458C360.876 104.73 361.644 105.252 363.102 105.234C369.906 105.162 376.71 105.204 383.514 105.198C384.078 105.198 384.636 105.12 385.506 105.054C385.17 104.358 385.014 104.004 384.828 103.668ZM341.928 72.5521C333.948 72.5641 325.974 72.5581 317.994 72.5581C299.814 72.5581 281.64 72.5581 263.46 72.5521C262.686 72.5521 261.906 72.5521 260.664 72.5521C261.132 71.5561 261.372 70.9741 261.672 70.4281C264.66 64.9201 267.702 59.4301 270.63 53.8921C271.248 52.7221 271.998 52.3861 273.252 52.3861C293.262 52.4161 313.266 52.4221 333.276 52.3801C334.656 52.3801 335.358 52.8361 335.934 54.1081C338.436 59.6401 341.064 65.1121 343.638 70.6141C343.854 71.0701 344.022 71.5561 344.328 72.3241C343.398 72.4141 342.666 72.5461 341.928 72.5521Z" fill="url(#paint1_linear_10_46)"/>
<path d="M557.97 35.9521C547.83 35.9461 537.69 35.9281 527.544 35.9821C526.758 35.9881 525.882 36.3241 525.21 36.7561C522.366 38.6101 519.576 40.5541 516.774 42.4801C505.356 50.3341 493.944 58.1881 482.526 66.0421C480.93 67.1401 480.93 67.1281 479.292 66.0421C464.7 56.3521 450.102 46.6681 435.528 36.9541C434.508 36.2761 433.494 35.9221 432.258 35.9281C422.904 35.9581 413.544 35.9461 404.19 35.9461C403.554 35.9461 402.918 36.0061 402.324 36.0361C401.868 38.1241 401.94 103.566 402.432 105.192C403.068 105.192 403.77 105.192 404.478 105.192C410.172 105.192 415.86 105.192 421.554 105.192C424.26 105.192 424.26 105.186 424.26 102.54C424.26 87.2941 424.26 72.0481 424.26 56.8081C424.26 55.8421 424.26 54.8761 424.26 53.3941C425.142 53.9461 425.58 54.1861 425.982 54.4801C429.684 57.1681 433.38 59.8681 437.076 62.5681C447.108 69.8941 457.146 77.2141 467.16 84.5581C468 85.1761 468.846 85.4521 469.878 85.4521C476.484 85.4281 483.096 85.4281 489.702 85.4521C490.794 85.4581 491.736 85.2181 492.63 84.5641C494.262 83.3701 495.954 82.2481 497.61 81.0841C510.126 72.2881 522.636 63.4861 535.152 54.6961C535.71 54.3001 536.328 53.9881 537.192 53.4721C537.246 54.3841 537.312 54.9421 537.312 55.5001C537.318 71.1361 537.312 86.7721 537.318 102.414C537.318 103.002 537.33 103.59 537.354 104.178C537.378 104.802 537.72 105.132 538.338 105.168C538.728 105.192 539.124 105.198 539.514 105.198C545.532 105.198 551.55 105.204 557.574 105.192C558.204 105.192 558.834 105.102 559.404 105.06C559.872 102.636 559.758 37.4821 559.302 36.0661C558.87 36.0241 558.42 35.9521 557.97 35.9521Z" fill="url(#paint2_linear_10_46)"/>
<path d="M118.068 36.2821C117.276 36.1981 116.79 36.1021 116.298 36.1021C112.308 36.0901 108.318 36.0961 104.328 36.0961C83.922 36.0961 63.522 36.1141 43.116 36.0661C41.466 36.0601 40.56 36.6001 39.732 38.0281C34.986 46.2241 30.126 54.3541 25.314 62.5141C17.418 75.9061 9.528 89.3041 1.638 102.696C1.152 103.518 0.69 104.358 0 105.57C1.206 105.57 1.92 105.57 2.634 105.57C20.226 105.57 37.818 105.57 55.41 105.57C62.016 105.57 68.622 105.498 75.222 105.618C77.064 105.654 78.174 105.096 78.882 103.446C79.242 102.612 79.764 101.844 80.226 101.058C92.412 80.2621 104.598 59.4661 116.778 38.6641C117.192 37.9561 117.558 37.2241 118.068 36.2821Z" fill="url(#paint3_linear_10_46)"/>
<path d="M155.19 37.8841C155.46 37.4161 155.652 36.9001 155.952 36.2521C155.286 36.1741 154.908 36.0961 154.53 36.0961C145.11 36.0901 135.684 36.1081 126.264 36.0721C125.106 36.0661 124.512 36.5401 123.96 37.4881C120.102 44.0881 116.184 50.6581 112.302 57.2461C103.776 71.7181 95.256 86.1902 86.736 100.668C85.854 102.162 85.002 103.674 83.97 105.462C85.008 105.51 85.698 105.564 86.388 105.564C95.418 105.57 104.448 105.528 113.478 105.606C115.062 105.618 115.938 105.108 116.73 103.74C123.042 92.8262 129.438 81.9542 135.804 71.0701C142.266 60.0061 148.728 48.9481 155.19 37.8841Z" fill="url(#paint4_linear_10_46)"/>
<path d="M181.512 42.2701C182.622 40.3681 183.72 38.4601 184.872 36.4561C184.488 36.2401 184.434 36.1861 184.38 36.1861C177.906 36.1561 171.432 36.1141 164.958 36.1381C164.472 36.1381 163.908 36.5701 163.524 36.9421C163.164 37.2901 162.984 37.8301 162.72 38.2801C154.14 52.9501 145.56 67.6201 136.98 82.2901C132.822 89.4001 128.658 96.5041 124.506 103.62C124.2 104.142 123.984 104.712 123.624 105.468C124.548 105.516 125.124 105.564 125.7 105.564C131.328 105.57 136.956 105.516 142.584 105.606C144.042 105.63 144.798 105.096 145.494 103.89C150.738 94.8421 156.048 85.8301 161.334 76.8061C168.06 65.2921 174.786 53.7781 181.512 42.2701Z" fill="url(#paint5_linear_10_46)"/>
<path d="M210.528 37.8121C210.78 37.3921 210.942 36.9181 211.224 36.2881C210.696 36.1861 210.504 36.1141 210.318 36.1141C205.806 36.1021 201.294 36.1321 196.782 36.0661C195.72 36.0481 195.282 36.6241 194.838 37.3861C193.134 40.3201 191.406 43.2481 189.69 46.1761C178.41 65.4541 167.124 84.7321 155.85 104.01C155.61 104.424 155.478 104.898 155.208 105.558C159.786 105.558 164.1 105.504 168.408 105.588C169.842 105.618 170.622 105.096 171.342 103.872C176.526 95.0221 181.788 86.2201 187.02 77.4061C194.862 64.2121 202.698 51.0181 210.528 37.8121Z" fill="url(#paint6_linear_10_46)"/>
<path d="M236.454 36.0961C235.332 36.0961 234.702 36.0961 234.072 36.0961C231.39 36.0961 228.702 36.2101 226.032 36.0541C224.232 35.9521 223.212 36.5581 222.312 38.1301C216.978 47.4181 211.536 56.6461 206.13 65.8921C198.744 78.5221 191.346 91.1521 183.96 103.782C183.678 104.262 183.48 104.784 183.168 105.444C183.906 105.498 184.41 105.558 184.92 105.558C187.992 105.57 191.07 105.498 194.142 105.594C195.444 105.636 196.146 105.132 196.77 104.046C200.982 96.7501 205.248 89.4841 209.508 82.2121C217.128 69.1861 224.76 56.1661 232.386 43.1401C233.658 40.9561 234.918 38.7541 236.454 36.0961Z" fill="url(#paint7_linear_10_46)"/>
<path d="M50.898 24.282V3.30601C50.898 0.900004 49.716 -0.281998 47.31 -0.281998H40.302V27.87H47.31C49.716 27.87 50.898 26.688 50.898 24.282ZM43.47 2.88001H47.736V24.702H43.47V2.88001Z" fill="url(#paint8_linear_10_46)"/>
<path d="M70.104 24.702H65.292V14.994H70.104V11.832H65.292V2.88001H70.062V-0.281998H62.124V27.87H70.104V24.702Z" fill="url(#paint9_linear_10_46)"/>
<path d="M87.996 27.87L92.388 -0.281998H89.514L86.268 21.114L83.394 -0.281998H80.4L84.408 27.87H87.996Z" fill="url(#paint10_linear_10_46)"/>
<path d="M110.874 24.702H106.062V14.994H110.874V11.832H106.062V2.88001H110.832V-0.281998H102.894V27.87H110.874V24.702Z" fill="url(#paint11_linear_10_46)"/>
<path d="M130.116 24.702H124.842V-0.281998H121.674V27.87H130.116V24.702Z" fill="url(#paint12_linear_10_46)"/>
<path d="M144.258 27.87H147.678C150.084 27.87 151.266 26.688 151.266 24.282V3.30601C151.266 0.900004 150.084 -0.281998 147.678 -0.281998H144.258C141.852 -0.281998 140.67 0.900004 140.67 3.30601V24.282C140.67 26.688 141.852 27.87 144.258 27.87ZM143.832 2.88001H148.098V24.702H143.832V2.88001Z" fill="url(#paint13_linear_10_46)"/>
<path d="M165.654 14.994H169.494C171.9 14.994 173.082 13.812 173.082 11.406V3.30601C173.082 0.900004 171.9 -0.281998 169.494 -0.281998H162.486V27.87H165.654V14.994ZM165.654 2.88001H169.92V11.826H165.654V2.88001Z" fill="url(#paint14_linear_10_46)"/>
<path d="M192.162 24.702H187.35V14.994H192.162V11.832H187.35V2.88001H192.12V-0.281998H184.182V27.87H192.162V24.702Z" fill="url(#paint15_linear_10_46)"/>
<path d="M206.13 14.994H210.396V27.87H213.564V15.966C213.564 14.868 213.186 14.022 212.382 13.476C213.186 12.972 213.564 12.252 213.564 11.28V3.30601C213.564 0.900004 212.382 -0.281998 209.976 -0.281998H202.968V27.87H206.136V14.994H206.13ZM206.13 2.88001H210.396V11.826H206.13V2.88001Z" fill="url(#paint16_linear_10_46)"/>
<path d="M228.372 27.87H231.792C234.198 27.87 235.38 26.688 235.38 24.282V17.484C235.38 16.302 235.254 15.456 234.96 14.952C234.666 14.448 234.114 14.022 233.232 13.728L228.882 12.126C228.462 11.958 228.204 11.79 228.12 11.622C227.994 11.454 227.952 11.034 227.952 10.314V2.88001H232.218V9.80402H235.386V3.30601C235.386 0.900004 234.204 -0.281998 231.798 -0.281998H228.378C225.972 -0.281998 224.79 0.900004 224.79 3.30601V10.188C224.79 11.622 224.916 12.636 225.168 13.224C225.42 13.812 225.93 14.238 226.686 14.532L231.456 16.344C231.792 16.47 232.002 16.638 232.092 16.806C232.176 16.974 232.218 17.352 232.218 17.988V24.702H227.952V17.91H224.784V24.282C224.784 26.688 225.966 27.87 228.372 27.87Z" fill="url(#paint17_linear_10_46)"/>
<path d="M226.434 123.198H223.146C220.83 123.198 219.696 124.338 219.696 126.648V150.282H222.744V137.898H226.848V150.282H229.896V126.648C229.884 124.338 228.744 123.198 226.434 123.198ZM226.836 134.856H222.732V126.246H226.836V134.856Z" fill="url(#paint18_linear_10_46)"/>
<path d="M254.208 123.198H247.47V150.282H250.518V126.24H254.622V150.282H257.67V126.648C257.658 124.338 256.524 123.198 254.208 123.198Z" fill="url(#paint19_linear_10_46)"/>
<path d="M281.982 123.198H278.694C276.378 123.198 275.244 124.338 275.244 126.648V146.832C275.244 149.148 276.378 150.282 278.694 150.282H281.982C284.298 150.282 285.432 149.148 285.432 146.832V134.85H280.842V137.898H282.384V147.24H278.28V126.246H282.384V133.272H285.432V126.654C285.432 124.338 284.298 123.198 281.982 123.198Z" fill="url(#paint20_linear_10_46)"/>
<path d="M310.164 147.24H306.06V123.198H303.012V146.832C303.012 149.148 304.152 150.282 306.462 150.282H313.2V123.198H310.152V147.24H310.164Z" fill="url(#paint21_linear_10_46)"/>
<path d="M333.834 123.198H330.792V150.282H338.91V147.24H333.834V123.198Z" fill="url(#paint22_linear_10_46)"/>
<path d="M362.586 123.198H359.298C356.982 123.198 355.848 124.338 355.848 126.648V150.282H358.896V137.898H363V150.282H366.048V126.648C366.036 124.338 364.902 123.198 362.586 123.198ZM362.988 134.856H358.884V126.246H362.988V134.856Z" fill="url(#paint23_linear_10_46)"/>
<path d="M390.36 123.198H383.622V150.282H386.67V137.898H390.774V150.282H393.822V138.828C393.822 137.772 393.456 136.962 392.682 136.434C393.456 135.948 393.822 135.258 393.822 134.322V126.648C393.81 124.338 392.676 123.198 390.36 123.198ZM390.768 134.856H386.664V126.246H390.768V134.856Z" fill="url(#paint24_linear_10_46)"/>
<path d="M416.628 136.722H411.066V139.524H416.628V136.722Z" fill="url(#paint25_linear_10_46)"/>
<path d="M447.492 123.198H433.602V150.282H436.65V126.24H440.754V150.282H443.802V126.24H447.906V150.282H450.954V126.648C450.942 124.338 449.808 123.198 447.492 123.198Z" fill="url(#paint26_linear_10_46)"/>
<path d="M475.266 123.198H471.978C469.662 123.198 468.528 124.338 468.528 126.648V146.832C468.528 149.148 469.668 150.282 471.978 150.282H475.266C477.582 150.282 478.716 149.148 478.716 146.832V126.648C478.716 124.338 477.582 123.198 475.266 123.198ZM475.674 147.24H471.57V126.246H475.674V147.24Z" fill="url(#paint27_linear_10_46)"/>
<path d="M503.04 123.198H496.296V150.282H499.344V126.24H503.448V150.282H506.496V126.648C506.496 124.338 505.356 123.198 503.04 123.198Z" fill="url(#paint28_linear_10_46)"/>
<path d="M527.118 126.246H531.708V123.198H524.076V150.282H531.75V147.24H527.118V137.898H531.75V134.856H527.118V126.246Z" fill="url(#paint29_linear_10_46)"/>
<path d="M556.152 134.856H552.048V123.204H549V134.454C549 136.77 550.134 137.904 552.45 137.904H552.57V150.288H555.618V137.904H555.738C558.054 137.904 559.188 136.764 559.188 134.454V123.204H556.14V134.856H556.152Z" fill="url(#paint30_linear_10_46)"/>
<path d="M581.448 136.722H575.886V139.524H581.448V136.722Z" fill="url(#paint31_linear_10_46)"/>
<path d="M605.448 123.198H602.16C599.844 123.198 598.71 124.338 598.71 126.648V146.832C598.71 149.148 599.85 150.282 602.16 150.282H605.448C607.764 150.282 608.898 149.148 608.898 146.832V134.85H604.308V137.898H605.85V147.24H601.746V126.246H605.85V133.272H608.898V126.654C608.904 124.338 607.764 123.198 605.448 123.198Z" fill="url(#paint32_linear_10_46)"/>
<path d="M633.222 123.198H626.478V150.282H629.526V137.898H633.63V150.282H636.678V138.828C636.678 137.772 636.312 136.962 635.538 136.434C636.312 135.948 636.678 135.258 636.678 134.322V126.648C636.678 124.338 635.538 123.198 633.222 123.198ZM633.63 134.856H629.526V126.246H633.63V134.856Z" fill="url(#paint33_linear_10_46)"/>
<path d="M660.996 123.198H657.708C655.392 123.198 654.258 124.338 654.258 126.648V146.832C654.258 149.148 655.398 150.282 657.708 150.282H660.996C663.312 150.282 664.446 149.148 664.446 146.832V126.648C664.452 124.338 663.312 123.198 660.996 123.198ZM661.404 147.24H657.3V126.246H661.404V147.24Z" fill="url(#paint34_linear_10_46)"/>
<path d="M689.178 147.24H685.074V123.198H682.026V146.832C682.026 149.148 683.166 150.282 685.476 150.282H692.214V123.198H689.166V147.24H689.178Z" fill="url(#paint35_linear_10_46)"/>
<path d="M716.55 123.198H709.812V150.282H712.86V137.898H716.556C718.872 137.898 720.006 136.758 720.006 134.448V126.654C720 124.338 718.866 123.198 716.55 123.198ZM716.952 134.856H712.848V126.246H716.952V134.856Z" fill="url(#paint36_linear_10_46)"/>
</g>
<defs>
<linearGradient id="paint0_linear_10_46" x1="584.396" y1="70.5559" x2="719.487" y2="70.5559" gradientUnits="userSpaceOnUse">
<stop stop-color="white"/>
<stop offset="1" stop-color="#8A8A8A"/>
</linearGradient>
<linearGradient id="paint1_linear_10_46" x1="217.617" y1="70.5674" x2="385.509" y2="70.5674" gradientUnits="userSpaceOnUse">
<stop stop-color="white"/>
<stop offset="1" stop-color="#8A8A8A"/>
</linearGradient>
<linearGradient id="paint2_linear_10_46" x1="402.022" y1="70.5606" x2="559.699" y2="70.5606" gradientUnits="userSpaceOnUse">
<stop stop-color="white"/>
<stop offset="1" stop-color="#8A8A8A"/>
</linearGradient>
<linearGradient id="paint3_linear_10_46" x1="0" y1="70.8402" x2="118.07" y2="70.8402" gradientUnits="userSpaceOnUse">
<stop stop-color="white"/>
<stop offset="1" stop-color="#8A8A8A"/>
</linearGradient>
<linearGradient id="paint4_linear_10_46" x1="83.9655" y1="70.8381" x2="155.948" y2="70.8381" gradientUnits="userSpaceOnUse">
<stop stop-color="white"/>
<stop offset="1" stop-color="#8A8A8A"/>
</linearGradient>
<linearGradient id="paint5_linear_10_46" x1="123.623" y1="70.8663" x2="184.874" y2="70.8663" gradientUnits="userSpaceOnUse">
<stop stop-color="white"/>
<stop offset="1" stop-color="#8A8A8A"/>
</linearGradient>
<linearGradient id="paint6_linear_10_46" x1="155.212" y1="70.8338" x2="211.226" y2="70.8338" gradientUnits="userSpaceOnUse">
<stop stop-color="white"/>
<stop offset="1" stop-color="#8A8A8A"/>
</linearGradient>
<linearGradient id="paint7_linear_10_46" x1="183.165" y1="70.8213" x2="236.455" y2="70.8213" gradientUnits="userSpaceOnUse">
<stop stop-color="white"/>
<stop offset="1" stop-color="#8A8A8A"/>
</linearGradient>
<linearGradient id="paint8_linear_10_46" x1="40.3045" y1="13.7923" x2="50.8988" y2="13.7923" gradientUnits="userSpaceOnUse">
<stop stop-color="white"/>
<stop offset="1" stop-color="#8A8A8A"/>
</linearGradient>
<linearGradient id="paint9_linear_10_46" x1="62.1252" y1="13.7923" x2="70.1025" y2="13.7923" gradientUnits="userSpaceOnUse">
<stop stop-color="white"/>
<stop offset="1" stop-color="#8A8A8A"/>
</linearGradient>
<linearGradient id="paint10_linear_10_46" x1="80.3999" y1="13.7923" x2="92.3869" y2="13.7923" gradientUnits="userSpaceOnUse">
<stop stop-color="white"/>
<stop offset="1" stop-color="#8A8A8A"/>
</linearGradient>
<linearGradient id="paint11_linear_10_46" x1="102.895" y1="13.7923" x2="110.872" y2="13.7923" gradientUnits="userSpaceOnUse">
<stop stop-color="white"/>
<stop offset="1" stop-color="#8A8A8A"/>
</linearGradient>
<linearGradient id="paint12_linear_10_46" x1="121.676" y1="13.7923" x2="130.118" y2="13.7923" gradientUnits="userSpaceOnUse">
<stop stop-color="white"/>
<stop offset="1" stop-color="#8A8A8A"/>
</linearGradient>
<linearGradient id="paint13_linear_10_46" x1="140.669" y1="13.7923" x2="151.263" y2="13.7923" gradientUnits="userSpaceOnUse">
<stop stop-color="white"/>
<stop offset="1" stop-color="#8A8A8A"/>
</linearGradient>
<linearGradient id="paint14_linear_10_46" x1="162.49" y1="13.7923" x2="173.084" y2="13.7923" gradientUnits="userSpaceOnUse">
<stop stop-color="white"/>
<stop offset="1" stop-color="#8A8A8A"/>
</linearGradient>
<linearGradient id="paint15_linear_10_46" x1="184.183" y1="13.7923" x2="192.161" y2="13.7923" gradientUnits="userSpaceOnUse">
<stop stop-color="white"/>
<stop offset="1" stop-color="#8A8A8A"/>
</linearGradient>
<linearGradient id="paint16_linear_10_46" x1="202.965" y1="13.7923" x2="213.559" y2="13.7923" gradientUnits="userSpaceOnUse">
<stop stop-color="white"/>
<stop offset="1" stop-color="#8A8A8A"/>
</linearGradient>
<linearGradient id="paint17_linear_10_46" x1="224.785" y1="13.7923" x2="235.38" y2="13.7923" gradientUnits="userSpaceOnUse">
<stop stop-color="white"/>
<stop offset="1" stop-color="#8A8A8A"/>
</linearGradient>
<linearGradient id="paint18_linear_10_46" x1="219.691" y1="136.742" x2="229.884" y2="136.742" gradientUnits="userSpaceOnUse">
<stop stop-color="white"/>
<stop offset="1" stop-color="#8A8A8A"/>
</linearGradient>
<linearGradient id="paint19_linear_10_46" x1="247.466" y1="136.742" x2="257.658" y2="136.742" gradientUnits="userSpaceOnUse">
<stop stop-color="white"/>
<stop offset="1" stop-color="#8A8A8A"/>
</linearGradient>
<linearGradient id="paint20_linear_10_46" x1="275.241" y1="136.742" x2="285.433" y2="136.742" gradientUnits="userSpaceOnUse">
<stop stop-color="white"/>
<stop offset="1" stop-color="#8A8A8A"/>
</linearGradient>
<linearGradient id="paint21_linear_10_46" x1="303.015" y1="136.742" x2="313.208" y2="136.742" gradientUnits="userSpaceOnUse">
<stop stop-color="white"/>
<stop offset="1" stop-color="#8A8A8A"/>
</linearGradient>
<linearGradient id="paint22_linear_10_46" x1="330.79" y1="136.742" x2="338.911" y2="136.742" gradientUnits="userSpaceOnUse">
<stop stop-color="white"/>
<stop offset="1" stop-color="#8A8A8A"/>
</linearGradient>
<linearGradient id="paint23_linear_10_46" x1="355.844" y1="136.742" x2="366.036" y2="136.742" gradientUnits="userSpaceOnUse">
<stop stop-color="white"/>
<stop offset="1" stop-color="#8A8A8A"/>
</linearGradient>
<linearGradient id="paint24_linear_10_46" x1="383.619" y1="136.742" x2="393.811" y2="136.742" gradientUnits="userSpaceOnUse">
<stop stop-color="white"/>
<stop offset="1" stop-color="#8A8A8A"/>
</linearGradient>
<linearGradient id="paint25_linear_10_46" x1="411.068" y1="138.122" x2="416.631" y2="138.122" gradientUnits="userSpaceOnUse">
<stop stop-color="white"/>
<stop offset="1" stop-color="#8A8A8A"/>
</linearGradient>
<linearGradient id="paint26_linear_10_46" x1="433.605" y1="136.742" x2="450.944" y2="136.742" gradientUnits="userSpaceOnUse">
<stop stop-color="white"/>
<stop offset="1" stop-color="#8A8A8A"/>
</linearGradient>
<linearGradient id="paint27_linear_10_46" x1="468.526" y1="136.742" x2="478.718" y2="136.742" gradientUnits="userSpaceOnUse">
<stop stop-color="white"/>
<stop offset="1" stop-color="#8A8A8A"/>
</linearGradient>
<linearGradient id="paint28_linear_10_46" x1="496.3" y1="136.742" x2="506.493" y2="136.742" gradientUnits="userSpaceOnUse">
<stop stop-color="white"/>
<stop offset="1" stop-color="#8A8A8A"/>
</linearGradient>
<linearGradient id="paint29_linear_10_46" x1="524.075" y1="136.742" x2="531.75" y2="136.742" gradientUnits="userSpaceOnUse">
<stop stop-color="white"/>
<stop offset="1" stop-color="#8A8A8A"/>
</linearGradient>
<linearGradient id="paint30_linear_10_46" x1="549.007" y1="136.742" x2="559.199" y2="136.742" gradientUnits="userSpaceOnUse">
<stop stop-color="white"/>
<stop offset="1" stop-color="#8A8A8A"/>
</linearGradient>
<linearGradient id="paint31_linear_10_46" x1="575.889" y1="138.122" x2="581.452" y2="138.122" gradientUnits="userSpaceOnUse">
<stop stop-color="white"/>
<stop offset="1" stop-color="#8A8A8A"/>
</linearGradient>
<linearGradient id="paint32_linear_10_46" x1="598.709" y1="136.742" x2="608.901" y2="136.742" gradientUnits="userSpaceOnUse">
<stop stop-color="white"/>
<stop offset="1" stop-color="#8A8A8A"/>
</linearGradient>
<linearGradient id="paint33_linear_10_46" x1="626.483" y1="136.742" x2="636.676" y2="136.742" gradientUnits="userSpaceOnUse">
<stop stop-color="white"/>
<stop offset="1" stop-color="#8A8A8A"/>
</linearGradient>
<linearGradient id="paint34_linear_10_46" x1="654.258" y1="136.742" x2="664.451" y2="136.742" gradientUnits="userSpaceOnUse">
<stop stop-color="white"/>
<stop offset="1" stop-color="#8A8A8A"/>
</linearGradient>
<linearGradient id="paint35_linear_10_46" x1="682.033" y1="136.742" x2="692.226" y2="136.742" gradientUnits="userSpaceOnUse">
<stop stop-color="white"/>
<stop offset="1" stop-color="#8A8A8A"/>
</linearGradient>
<linearGradient id="paint36_linear_10_46" x1="709.807" y1="136.742" x2="720" y2="136.742" gradientUnits="userSpaceOnUse">
<stop stop-color="white"/>
<stop offset="1" stop-color="#8A8A8A"/>
</linearGradient>
<clipPath id="clip0_10_46">
<rect width="720" height="150" fill="white"/>
</clipPath>
</defs>
</svg>
